<svg width="1423" height="280" viewBox="0 0 1423 280" fill="none" xmlns="http://www.w3.org/2000/svg">
<path d="M363.098 11.2292C200.074 -20.292 64.1697 45.2973 0 97.1168V278.698H1423V127.638C1195.76 58.2451 1125.69 97.1168 998.335 127.638C866.495 159.236 817.568 158.781 703.241 143.115C562.05 123.768 471.998 32.2851 363.098 11.2292Z" fill="#E3E3E3"/>
<path d="M305.591 26.5083C201.71 -23.8907 58.5798 10.5086 0 34.0082V279.004H1423V83.5011C1423 83.5011 1367.84 48.5 1230.66 49C1093.49 49.5 954.362 86.0071 803.519 130.006C652.676 174.005 435.443 89.5071 305.591 26.5083Z" fill="url(#paint0_linear_462_1450)"/>
<defs>
<linearGradient id="paint0_linear_462_1450" x1="711.5" y1="-8" x2="711.5" y2="279" gradientUnits="userSpaceOnUse">
<stop stop-color="#F5F5F5"/>
<stop offset="1" stop-color="white"/>
</linearGradient>
</defs>
</svg>
